
<svg width="570px" height="627px" viewBox="0 0 570 627" version="1.1" xmlns="http://www.w3.org/2000/svg" xmlns:xlink="http://www.w3.org/1999/xlink">
    <!-- Generator: Sketch 49 (51002) - http://www.bohemiancoding.com/sketch -->
    <desc>Created with Sketch.</desc>
    <defs>
        <linearGradient x1="3929.67192%" y1="-666.640146%" x2="-3672.53487%" y2="-729.969839%" id="linearGradient-1">
            <stop stop-color="#1B6BA6" offset="0%"></stop>
            <stop stop-color="#87B6CE" offset="100%"></stop>
        </linearGradient>
        <linearGradient x1="12.7571601%" y1="82.9396429%" x2="86.5798545%" y2="17.6475613%" id="linearGradient-2">
            <stop stop-color="#CA7A1B" offset="0%"></stop>
            <stop stop-color="#F3AA53" offset="100%"></stop>
        </linearGradient>
        <linearGradient x1="0%" y1="49.9996425%" x2="97.1256322%" y2="49.9996425%" id="linearGradient-3">
            <stop stop-color="#87B6CE" offset="0%"></stop>
            <stop stop-color="#1B6BA6" offset="100%"></stop>
        </linearGradient>
    </defs>
    <g id="Page-1" stroke="none" stroke-width="1" fill="none" fill-rule="evenodd">
        <g id="service-2">
            <g id="Group" transform="translate(0.167410, 0.166850)">
                <rect id="Rectangle-path" fill="url(#linearGradient-1)" x="0.16250013" y="434.454514" width="499.300399" height="5.09167074"></rect>
                <rect id="Rectangle-path" fill="url(#linearGradient-1)" x="0.16250013" y="451.437861" width="499.300399" height="5.09167074"></rect>
                <rect id="Rectangle-path" fill="url(#linearGradient-1)" x="0.16250013" y="468.417041" width="499.300399" height="5.10000408"></rect>
                <rect id="Rectangle-path" fill="url(#linearGradient-1)" x="0.16250013" y="485.400388" width="499.300399" height="5.09583741"></rect>
                <rect id="Rectangle-path" fill="url(#linearGradient-1)" x="0.16250013" y="366.525293" width="499.300399" height="5.09167074"></rect>
                <rect id="Rectangle-path" fill="url(#linearGradient-1)" x="0.16250013" y="417.471167" width="499.300399" height="5.09583741"></rect>
                <rect id="Rectangle-path" fill="url(#linearGradient-1)" x="0.16250013" y="383.504473" width="499.300399" height="5.09583741"></rect>
                <rect id="Rectangle-path" fill="url(#linearGradient-1)" x="0.16250013" y="400.48782" width="499.300399" height="5.09583741"></rect>
                <polygon id="Shape" fill="url(#linearGradient-1)" points="95.4625764 553.333776 104.283417 558.425447 395.341983 558.425447 404.162823 553.333776"></polygon>
                <polygon id="Shape" fill="url(#linearGradient-1)" points="183.704314 604.27965 192.529321 609.375488 307.096079 609.375488 315.916919 604.27965"></polygon>
                <polygon id="Shape" fill="url(#linearGradient-1)" points="213.121004 621.262997 221.946011 626.354668 277.683555 626.354668 286.504396 621.262997"></polygon>
                <polygon id="Shape" fill="url(#linearGradient-1)" points="154.29179 587.296303 163.11263 592.392141 336.512769 592.392141 345.33361 587.296303"></polygon>
                <polygon id="Shape" fill="url(#linearGradient-1)" points="66.0458862 536.350429 74.8708932 541.4421 424.754506 541.4421 433.579514 536.350429"></polygon>
                <polygon id="Shape" fill="url(#linearGradient-1)" points="124.8751 570.312956 133.700107 575.408794 365.925293 575.408794 374.746133 570.312956"></polygon>
                <polygon id="Shape" fill="url(#linearGradient-1)" points="36.6333626 519.362915 45.4583697 524.458753 454.171197 524.458753 462.992037 519.362915"></polygon>
                <polygon id="Shape" fill="url(#linearGradient-1)" points="7.21667244 502.383735 16.0416795 507.479573 483.58372 507.479573 492.408727 502.383735"></polygon>
                <rect id="Rectangle-path" fill="url(#linearGradient-1)" x="0.16250013" y="349.541946" width="499.300399" height="5.09167074"></rect>
                <polygon id="Shape" fill="url(#linearGradient-1)" points="111.516756 145.750117 102.691749 150.850121 396.933651 150.850121 388.108644 145.750117"></polygon>
                <polygon id="Shape" fill="url(#linearGradient-1)" points="140.933446 128.770936 132.108439 133.862607 367.516961 133.862607 358.69612 128.770936"></polygon>
                <polygon id="Shape" fill="url(#linearGradient-1)" points="52.6875422 179.71681 43.8625351 184.812648 455.762865 184.812648 446.937858 179.71681"></polygon>
                <polygon id="Shape" fill="url(#linearGradient-1)" points="82.1042324 162.733464 73.2792253 167.829301 426.346174 167.829301 417.521167 162.733464"></polygon>
                <polygon id="Shape" fill="url(#linearGradient-1)" points="170.34597 111.787589 161.520963 116.883427 338.104437 116.883427 329.27943 111.787589"></polygon>
                <polygon id="Shape" fill="url(#linearGradient-1)" points="199.758493 94.8042425 190.937653 99.9000799 308.687747 99.9000799 299.86274 94.8042425"></polygon>
                <polygon id="Shape" fill="url(#linearGradient-1)" points="249.766866 65.9333861 249.858533 65.9333861 249.8127 65.9083861"></polygon>
                <polygon id="Shape" fill="url(#linearGradient-1)" points="229.175183 77.8208956 220.350176 82.916733 279.275223 82.916733 270.450216 77.8208956"></polygon>
                <polygon id="Shape" fill="url(#linearGradient-1)" points="23.270852 196.700157 14.4500116 201.791828 485.175388 201.791828 476.350381 196.700157"></polygon>
                <rect id="Rectangle-path" fill="url(#linearGradient-1)" x="0.16250013" y="298.596072" width="499.300399" height="5.09167074"></rect>
                <rect id="Rectangle-path" fill="url(#linearGradient-1)" x="0.16250013" y="281.608559" width="499.300399" height="5.09583741"></rect>
                <rect id="Rectangle-path" fill="url(#linearGradient-1)" x="0.16250013" y="315.575252" width="499.300399" height="5.09583741"></rect>
                <rect id="Rectangle-path" fill="url(#linearGradient-1)" x="0.16250013" y="264.629378" width="499.300399" height="5.09167074"></rect>
                <rect id="Rectangle-path" fill="url(#linearGradient-1)" x="0.16250013" y="332.558599" width="499.300399" height="5.09583741"></rect>
                <rect id="Rectangle-path" fill="url(#linearGradient-1)" x="0.16250013" y="213.679338" width="499.300399" height="5.09583741"></rect>
                <rect id="Rectangle-path" fill="url(#linearGradient-1)" x="0.16250013" y="247.646031" width="499.300399" height="5.09583741"></rect>
                <rect id="Rectangle-path" fill="url(#linearGradient-1)" x="0.16250013" y="230.662685" width="499.300399" height="5.09583741"></rect>
                <polygon id="Shape" fill="url(#linearGradient-2)" points="44.0292019 184.145981 44.0292019 472.412878 293.679402 616.550493 543.325435 472.412878 543.325435 184.145981 293.679402 40.0083653"></polygon>
                <path d="M69.6000557,434.292014 L316.54192,576.867128 L563.483784,434.292014 L563.483784,149.150119 L316.54192,6.57917193 L69.6000557,149.150119 L69.6000557,434.292014 Z M316.54192,583.117133 L64.1833847,437.417017 L64.1833847,146.025117 L316.54192,0.32916693 L568.896288,146.025117 L568.896288,437.417017 L316.54192,583.117133 Z" id="Shape" fill="url(#linearGradient-3)"></path>
                <path d="M517.571247,126.912602 C516.071246,126.912602 514.862912,128.125102 514.862912,129.620937 L514.862912,137.920944 C514.862912,139.416778 516.071246,140.625113 517.571247,140.625113 C519.062915,140.625113 520.275416,139.416778 520.275416,137.920944 L520.275416,129.620937 C520.275416,128.125102 519.062915,126.912602 517.571247,126.912602 Z" id="Shape" fill="#003E58" fill-rule="nonzero"></path>
                <path d="M517.571247,155.575124 C516.071246,155.575124 514.862912,156.783459 514.862912,158.279293 L514.862912,167.750134 C514.862912,169.245969 516.071246,170.45847 517.571247,170.45847 C519.062915,170.45847 520.275416,169.245969 520.275416,167.750134 L520.275416,158.279293 C520.275416,156.783459 519.062915,155.575124 517.571247,155.575124 Z" id="Shape" fill="#003E58" fill-rule="nonzero"></path>
                <path d="M527.150422,146.029283 C527.592089,146.029283 528.046256,145.916783 528.467089,145.68345 L535.525428,141.733447 C536.829596,141.000113 537.296263,139.350111 536.562929,138.045944 C535.837929,136.741776 534.187927,136.279276 532.88376,137.008443 L525.821254,140.962613 C524.517086,141.69178 524.050419,143.341781 524.783753,144.645949 C525.27542,145.529283 526.196254,146.029283 527.150422,146.029283 Z" id="Shape" fill="#003E58" fill-rule="nonzero"></path>
                <path d="M507.875406,151.012621 L499.6129,155.637625 C498.308732,156.370958 497.842065,158.02096 498.571232,159.325127 C499.067066,160.208462 499.992067,160.708462 500.937901,160.708462 C501.383734,160.708462 501.837901,160.595962 502.258735,160.362628 L510.517075,155.733458 C511.825409,155.004291 512.28791,153.354289 511.558743,152.050122 C510.829575,150.750121 509.183741,150.279287 507.875406,151.012621 Z" id="Shape" fill="#003E58" fill-rule="nonzero"></path>
                <path d="M499.958733,141.350113 L507.350406,145.95845 C507.79624,146.237617 508.292073,146.37095 508.779574,146.37095 C509.683741,146.37095 510.567075,145.916783 511.079576,145.095949 C511.871243,143.829282 511.483743,142.158447 510.217075,141.36678 L502.829569,136.758443 C501.558735,135.966775 499.892067,136.354276 499.096233,137.620943 C498.308732,138.887611 498.696232,140.558446 499.958733,141.350113 Z" id="Shape" fill="#003E58" fill-rule="nonzero"></path>
                <path d="M535.175428,156.937626 L527.621255,152.225122 C526.350421,151.433454 524.683753,151.820955 523.892086,153.087622 C523.100418,154.35429 523.487919,156.025125 524.754586,156.816792 L532.312926,161.533463 C532.75876,161.808463 533.250427,161.941796 533.74626,161.941796 C534.642094,161.941796 535.525428,161.491796 536.037929,160.670962 C536.833763,159.400128 536.446262,157.729293 535.175428,156.937626 Z" id="Shape" fill="#003E58" fill-rule="nonzero"></path>
                <path d="M103.150083,226.508515 C97.6292448,226.508515 93.1375745,222.016844 93.1375745,216.49184 C93.1375745,210.971002 97.6292448,206.479332 103.150083,206.479332 C108.675087,206.479332 113.166757,210.971002 113.166757,216.49184 C113.166757,222.016844 108.675087,226.508515 103.150083,226.508515 Z M103.150083,201.066828 C94.6459091,201.066828 87.7250702,207.987666 87.7250702,216.49184 C87.7250702,225.00018 94.6459091,231.921019 103.150083,231.921019 C111.658423,231.921019 118.579262,225.00018 118.579262,216.49184 C118.579262,207.987666 111.658423,201.066828 103.150083,201.066828 Z" id="Shape" fill="#003E58" fill-rule="nonzero"></path>
                <path d="M374.383633,497.371231 L382.312806,489.412892 C383.366973,488.354557 383.366973,486.642056 382.304473,485.583722 C381.246138,484.529554 379.533637,484.533721 378.479469,485.592055 L370.562796,493.537895 L362.63779,485.592055 C361.583623,484.533721 359.871121,484.529554 358.812787,485.583722 C357.750286,486.642056 357.750286,488.354557 358.804454,489.412892 L366.74196,497.371231 L358.379453,505.762905 C357.321119,506.821239 357.325286,508.53374 358.38362,509.587908 C358.912787,510.117075 359.604454,510.375408 360.296122,510.375408 C360.987789,510.375408 361.683623,510.112908 362.21279,509.583741 L370.562796,501.204568 L378.908636,509.583741 C379.433637,510.112908 380.129471,510.375408 380.821138,510.375408 C381.512805,510.375408 382.204472,510.117075 382.73364,509.587908 C383.791974,508.53374 383.79614,506.821239 382.737806,505.762905 L374.383633,497.371231 Z" id="Shape" fill="#003E58" fill-rule="nonzero"></path>
            </g>
            <g id="lamp" transform="translate(188.000000, 178.000000)" fill="#404040" fill-rule="nonzero">
                <path d="M157.078913,54.5387706 C143.600867,40.9013232 125.62349,33.2554231 106.459456,33.0062737 C87.0201961,32.7531377 68.6419485,40.1678271 54.6992112,53.8810161 C40.7644509,67.5862323 33.0581516,85.8239762 33.0003146,105.235713 C32.9384886,126.245993 41.9909971,146.22579 57.8363769,160.052591 C69.308073,170.062422 75.8875455,184.297829 75.8875455,199.103289 L75.8875455,235.656512 C75.8875455,249.63081 87.2635111,261 101.246137,261 L109.756172,261 C123.736803,261 135.112769,249.63081 135.112769,235.656512 L135.112769,199.57169 C135.112769,184.343672 141.566595,170.04847 152.820903,160.349578 C168.821845,146.56264 178,126.552945 178,105.456958 C178,86.2704521 170.57092,68.1861842 157.078913,54.5387706 Z M105.436337,142.187575 L102.049873,142.187575 C100.199085,142.187575 98.6933253,140.682712 98.6933253,138.831033 C98.6933253,136.981347 100.199085,135.476484 102.049873,135.476484 C103.916616,135.476484 105.436337,136.995299 105.436337,138.86093 L105.436337,142.187575 Z M105.500157,172.514054 C108.316227,172.514054 110.60578,174.802242 110.60578,177.616636 L110.60578,194.965414 L100.394535,194.965414 L100.394535,177.616636 C100.394535,174.802242 102.684087,172.514054 105.500157,172.514054 Z M124.901524,205.170578 L124.901524,212.674961 L86.098791,212.674961 L86.098791,205.170578 L124.901524,205.170578 Z M86.098791,222.880125 L124.901524,222.880125 L124.901524,230.384508 L86.098791,230.384508 L86.098791,222.880125 Z M109.754178,250.794836 L101.246137,250.794836 C94.6207931,250.794836 88.9806755,246.521424 86.9284547,240.589672 L124.07186,240.589672 C122.019639,246.521424 116.379521,250.794836 109.754178,250.794836 Z M146.153678,152.621956 C133.794482,163.271603 126.257705,178.505601 125.067058,194.965414 L120.817025,194.965414 L120.817025,177.616636 C120.817025,173.060189 118.81267,168.966164 115.643593,166.159744 C115.643593,166.137819 115.647582,166.115894 115.647582,166.091976 L115.647582,149.321224 C119.805873,146.339402 122.518235,141.468031 122.518235,135.974783 L122.518235,128.07176 C122.518235,117.200869 113.669154,108.355065 102.78979,108.355065 L93.5877025,108.355065 C90.7676435,108.355065 88.4820798,110.639268 88.4820798,113.457647 C88.4820798,116.276026 90.7676435,118.560229 93.5877025,118.560229 L102.78979,118.560229 C108.039008,118.560229 112.306989,122.827662 112.306989,128.07176 L112.306989,129.949351 C109.812015,127.085129 106.140354,125.27132 102.049873,125.27132 C94.5689389,125.27132 88.4820798,131.354554 88.4820798,138.833026 C88.4820798,146.309505 94.5689389,152.392739 102.049873,152.392739 L105.436337,152.392739 L105.436337,162.310883 C97.0200371,162.344767 90.1832891,169.197375 90.1832891,177.616636 L90.1832891,194.965414 L85.9571896,194.965414 C84.8383404,178.722859 77.1779115,163.381229 64.5534618,152.364834 C50.9358087,140.485385 43.1577116,123.317988 43.2115601,105.267604 C43.2614196,88.6004982 49.8847683,72.9339775 61.8630381,61.1541885 C73.8472907,49.3664271 89.6248617,42.9921858 106.325832,43.2114376 C140.216397,43.6499403 167.788755,71.5746176 167.788755,105.456958 C167.788755,123.583083 159.90296,140.772406 146.153678,152.621956 Z" id="Shape"></path>
                <path d="M107.072663,58.0002511 L106.995134,58.0002511 C104.260294,57.9729083 102.033271,60.1818373 102.000321,62.9415335 C101.969309,65.7031827 104.18858,67.9687508 106.929234,68 L107.004825,68 L107.06491,68 C109.776491,68 111.968626,65.8008367 111.999638,63.0587181 C112.032588,60.2970684 109.813317,58.0334538 107.072663,58.0002511 Z" id="Shape"></path>
                <path d="M128.569132,63.6402029 C126.11133,62.2802259 123.011239,63.1578849 121.643142,65.6010999 C120.277034,68.0423373 121.157946,71.1240295 123.615747,72.4840065 C135.461318,79.0407559 142.818815,91.4762434 142.818815,104.93962 C142.818815,107.734689 145.09765,110 147.909407,110 C150.721164,110 153,107.734689 153,104.93962 C153,87.8074683 143.638082,71.9838988 128.569132,63.6402029 Z" id="Shape"></path>
                <path d="M105,24 C107.761719,24 110,21.714096 110,18.893617 L110,5.10638298 C110,2.285904 107.761719,0 105,0 C102.238281,0 100,2.285904 100,5.10638298 L100,18.893617 C100,21.714096 102.238281,24 105,24 Z" id="Shape"></path>
                <path d="M205.893617,100 L192.106383,100 C189.285904,100 187,102.238281 187,105 C187,107.761719 189.285904,110 192.106383,110 L205.893617,110 C208.714095,110 211,107.761719 211,105 C211,102.238281 208.714095,100 205.893617,100 Z" id="Shape"></path>
                <path d="M18.893617,100 L5.10638298,100 C2.285904,100 0,102.238281 0,105 C0,107.761719 2.285904,110 5.10638298,110 L18.893617,110 C21.714096,110 24,107.761719 24,105 C24,102.238281 21.714096,100 18.893617,100 Z" id="Shape"></path>
                <path d="M170.734168,163.498801 C168.735617,161.5004 165.495966,161.5004 163.497414,163.498801 C161.500862,165.495204 161.500862,168.734612 163.497414,170.733013 L173.266332,180.501199 C174.265607,181.498401 175.574659,182 176.88371,182 C178.19276,182 179.501811,181.498401 180.501087,180.501199 C182.499638,178.502798 182.499638,175.263389 180.501087,173.264988 L170.734168,163.498801 Z" id="Shape"></path>
                <path d="M41.2666592,48.5010865 C42.2658972,49.500362 43.5748993,50 44.8839013,50 C46.1929033,50 47.5039037,49.500362 48.5011429,48.5010865 C50.499619,46.5045338 50.499619,43.2648827 48.5011429,41.2663316 L38.7345897,31.4974141 C36.7361136,29.500862 33.4965838,29.500862 31.4981076,31.4974141 C29.4996315,33.4959651 29.5016303,36.7356163 31.4981076,38.7341673 L41.2666592,48.5010865 Z" id="Shape"></path>
                <path d="M173.266114,31.4997258 L163.498951,41.2654244 C161.50035,43.2637258 161.50035,46.5029723 163.498951,48.5012737 C164.498251,49.5004249 165.807335,50 167.116419,50 C168.425502,50 169.734586,49.5004249 170.733886,48.5012737 L180.501049,38.7335764 C182.49965,36.735275 182.49965,33.4960285 180.501049,31.4977271 C178.504447,29.4994257 175.264715,29.5014244 173.266114,31.4997258 Z" id="Shape"></path>
                <path d="M41.2661136,163.498801 L31.4989508,173.264988 C29.5003497,175.263389 29.5003497,178.502798 31.4989508,180.501199 C32.4982508,181.498401 33.8073346,182 35.1164183,182 C36.4255021,182 37.7345859,181.498401 38.7338859,180.501199 L48.5010492,170.733013 C50.4996503,168.734612 50.4996503,165.495204 48.5010492,163.498801 C46.5044467,161.5004 43.2647146,161.5004 41.2661136,163.498801 Z" id="Shape"></path>
            </g>
        </g>
    </g>
</svg>
