
<svg width="557px" height="554px" viewBox="0 0 557 554" version="1.1" xmlns="http://www.w3.org/2000/svg" xmlns:xlink="http://www.w3.org/1999/xlink">
    <!-- Generator: Sketch 49 (51002) - http://www.bohemiancoding.com/sketch -->
    <desc>Created with Sketch.</desc>
    <defs>
        <linearGradient x1="115.368719%" y1="-16.1059145%" x2="-20.589122%" y2="123.782141%" id="linearGradient-1">
            <stop stop-color="#1B6BA6" offset="0%"></stop>
            <stop stop-color="#87B6CE" offset="100%"></stop>
        </linearGradient>
        <linearGradient x1="103.05073%" y1="-3.05129002%" x2="-5.30125404%" y2="105.301656%" id="linearGradient-2">
            <stop stop-color="#F3AA54" offset="0%"></stop>
            <stop stop-color="#CB7C1D" offset="100%"></stop>
        </linearGradient>
        <linearGradient x1="0.000589334725%" y1="50.000421%" x2="100.000589%" y2="50.000421%" id="linearGradient-3">
            <stop stop-color="#87B6CE" offset="0%"></stop>
            <stop stop-color="#1B6BA6" offset="100%"></stop>
        </linearGradient>
    </defs>
    <g id="Page-1" stroke="none" stroke-width="1" fill="none" fill-rule="evenodd">
        <g id="service-1">
            <g id="Group" transform="translate(0.666840, 0.666900)">
                <polygon id="Shape" fill="url(#linearGradient-1)" points="166.745967 552.458775 174.691806 552.458775 511.521243 215.629339 511.521243 207.683499"></polygon>
                <polygon id="Shape" fill="url(#linearGradient-1)" points="193.241821 552.458775 201.191828 552.458775 511.521243 242.12936 511.521243 234.179354"></polygon>
                <polygon id="Shape" fill="url(#linearGradient-1)" points="219.737676 552.458775 227.687682 552.458775 511.521243 268.625215 511.521243 260.675209"></polygon>
                <polygon id="Shape" fill="url(#linearGradient-1)" points="7.76667288 552.458775 15.7166792 552.458775 511.521243 56.6583787 511.521243 48.7083723"></polygon>
                <polygon id="Shape" fill="url(#linearGradient-1)" points="246.23353 552.458775 254.183537 552.458775 511.521243 295.121069 511.521243 287.171063"></polygon>
                <polygon id="Shape" fill="url(#linearGradient-1)" points="113.750091 552.458775 121.700097 552.458775 511.521243 162.63763 511.521243 154.687624"></polygon>
                <polygon id="Shape" fill="url(#linearGradient-1)" points="34.2625274 552.458775 42.2125338 552.458775 511.521243 83.1542332 511.521243 75.2042268"></polygon>
                <polygon id="Shape" fill="url(#linearGradient-1)" points="60.7625486 552.458775 68.7083883 552.458775 511.521243 109.645921 511.521243 101.700081"></polygon>
                <polygon id="Shape" fill="url(#linearGradient-1)" points="87.2542365 552.458775 95.2042428 552.458775 511.521243 136.141776 511.521243 128.195936"></polygon>
                <polygon id="Shape" fill="url(#linearGradient-1)" points="140.250112 552.458775 148.195952 552.458775 511.521243 189.137651 511.521243 181.187645"></polygon>
                <polygon id="Shape" fill="url(#linearGradient-1)" points="405.212824 552.458775 413.162831 552.458775 511.521243 454.096197 511.521243 446.14619"></polygon>
                <polygon id="Shape" fill="url(#linearGradient-1)" points="511.521243 533.587927 511.521243 525.633754 484.700388 552.458775 492.650394 552.458775"></polygon>
                <polygon id="Shape" fill="url(#linearGradient-1)" points="431.708679 552.458775 439.658685 552.458775 511.521243 480.596218 511.521243 472.646211"></polygon>
                <polygon id="Shape" fill="url(#linearGradient-1)" points="458.204533 552.458775 466.150373 552.458775 511.521243 507.087906 511.521243 499.142066"></polygon>
                <polygon id="Shape" fill="url(#linearGradient-1)" points="272.733552 552.458775 280.679391 552.458775 511.521243 321.616924 511.521243 313.666918"></polygon>
                <polygon id="Shape" fill="url(#linearGradient-1)" points="299.225239 552.458775 307.175246 552.458775 511.521243 348.112778 511.521243 340.166939"></polygon>
                <polygon id="Shape" fill="url(#linearGradient-1)" points="325.721094 552.458775 333.6711 552.458775 511.521243 374.608633 511.521243 366.658627"></polygon>
                <polygon id="Shape" fill="url(#linearGradient-1)" points="352.221115 552.458775 360.166955 552.458775 511.521243 401.104488 511.521243 393.154481"></polygon>
                <polygon id="Shape" fill="url(#linearGradient-1)" points="378.71697 552.458775 386.662809 552.458775 511.521243 427.600342 511.521243 419.654502"></polygon>
                <polygon id="Shape" fill="url(#linearGradient-1)" points="0 348.258612 0 356.204452 315.271086 40.9375328 307.321079 40.9375328"></polygon>
                <polygon id="Shape" fill="url(#linearGradient-1)" points="0 189.279318 0 197.229324 156.291792 40.9375328 148.341785 40.9375328"></polygon>
                <polygon id="Shape" fill="url(#linearGradient-1)" points="0 162.783464 0 170.73347 129.791771 40.9375328 121.845931 40.9375328"></polygon>
                <polygon id="Shape" fill="url(#linearGradient-1)" points="0 215.775173 0 223.725179 182.787646 40.9375328 174.83764 40.9375328"></polygon>
                <polygon id="Shape" fill="url(#linearGradient-1)" points="0 242.275194 0 250.221034 209.287667 40.9375328 201.337661 40.9375328"></polygon>
                <polygon id="Shape" fill="url(#linearGradient-1)" points="0 268.766882 0 276.716888 235.779355 40.9375328 227.833516 40.9375328"></polygon>
                <polygon id="Shape" fill="url(#linearGradient-1)" points="0 56.8000454 0 64.7500518 23.8083524 40.9375328 15.8625127 40.9375328"></polygon>
                <polygon id="Shape" fill="url(#linearGradient-1)" points="0 83.2959 0 91.2459063 50.3042069 40.9375328 42.3583672 40.9375328"></polygon>
                <polygon id="Shape" fill="url(#linearGradient-1)" points="0 136.287609 0 144.237615 103.300083 40.9375328 95.3500763 40.9375328"></polygon>
                <polygon id="Shape" fill="url(#linearGradient-1)" points="0 109.795921 0 117.741761 76.8042281 40.9375328 68.8542218 40.9375328"></polygon>
                <polygon id="Shape" fill="url(#linearGradient-1)" points="0 401.250321 0 409.196161 368.262795 40.9375328 360.312788 40.9375328"></polygon>
                <polygon id="Shape" fill="url(#linearGradient-1)" points="0 480.737885 0 488.687891 447.750358 40.9375328 439.800352 40.9375328"></polygon>
                <polygon id="Shape" fill="url(#linearGradient-1)" points="0 427.746176 0 435.692015 394.758649 40.9375328 386.808643 40.9375328"></polygon>
                <polygon id="Shape" fill="url(#linearGradient-1)" points="0 454.24203 0 462.192036 421.254504 40.9375328 413.304497 40.9375328"></polygon>
                <polygon id="Shape" fill="url(#linearGradient-1)" points="0 507.233739 0 515.183745 474.246213 40.9375328 466.300373 40.9375328"></polygon>
                <polygon id="Shape" fill="url(#linearGradient-1)" points="0 321.762757 0 329.708597 288.775231 40.9375328 280.825225 40.9375328"></polygon>
                <polygon id="Shape" fill="url(#linearGradient-1)" points="511.196242 552.458775 511.521243 552.458775 511.521243 552.133775"></polygon>
                <polygon id="Shape" fill="url(#linearGradient-1)" points="0 533.729594 0 541.6796 500.742067 40.9375328 492.796228 40.9375328"></polygon>
                <polygon id="Shape" fill="url(#linearGradient-1)" points="0 295.262736 0 303.212743 262.27521 40.9375328 254.32937 40.9375328"></polygon>
                <polygon id="Shape" fill="url(#linearGradient-1)" points="0 374.7503 0 382.704473 341.76694 40.9375328 333.816934 40.9375328"></polygon>
                <rect id="Rectangle-path" fill="url(#linearGradient-2)" x="43.5750349" y="39.962532" width="469.150375" height="469.146209"></rect>
                <path d="M61.8125494,489.733725 L545.89627,489.733725 L545.89627,5.65417119 L61.8125494,5.65417119 L61.8125494,489.733725 Z M551.308774,495.146229 L56.4000451,495.146229 L56.4000451,0.24166686 L551.308774,0.24166686 L551.308774,495.146229 Z" id="Shape" fill="url(#linearGradient-3)"></path>
                <path d="M536.150429,74.8792266 C534.654594,74.8792266 533.442093,73.6667256 533.442093,72.1750577 L533.442093,63.8708844 C533.442093,62.3792166 534.654594,61.1667156 536.150429,61.1667156 C537.646263,61.1667156 538.858764,62.3792166 538.858764,63.8708844 L538.858764,72.1750577 C538.858764,73.6667256 537.646263,74.8792266 536.150429,74.8792266 Z" id="Shape" fill="#404040" fill-rule="nonzero"></path>
                <path d="M536.150429,104.708417 C534.654594,104.708417 533.442093,103.495916 533.442093,102.004248 L533.442093,92.5334074 C533.442093,91.0375728 534.654594,89.8250719 536.150429,89.8250719 C537.646263,89.8250719 538.858764,91.0375728 538.858764,92.5334074 L538.858764,102.004248 C538.858764,103.495916 537.646263,104.708417 536.150429,104.708417 Z" id="Shape" fill="#404040" fill-rule="nonzero"></path>
                <path d="M545.729603,80.2833976 C544.779602,80.2833976 543.858768,79.7833972 543.362935,78.9000631 C542.633767,77.5958954 543.100434,75.9458941 544.404602,75.2125602 L551.462941,71.262557 C552.771276,70.5292231 554.41711,70.9958901 555.146277,72.3000578 C555.879611,73.6042256 555.412944,75.2542269 554.108777,75.9833941 L547.050438,79.9375639 C546.629604,80.1708975 546.175437,80.2833976 545.729603,80.2833976 Z" id="Shape" fill="#404040" fill-rule="nonzero"></path>
                <path d="M519.521249,94.9584093 C518.571248,94.9584093 517.650414,94.4625756 517.15458,93.5750749 C516.425413,92.2709071 516.89208,90.6209058 518.196248,89.8917386 L526.458755,85.2625682 C527.762922,84.533401 529.412924,85.000068 530.142091,86.3042357 C530.871258,87.6084034 530.404591,89.2584047 529.100423,89.987572 L520.837917,94.6125757 C520.42125,94.8500759 519.967083,94.9584093 519.521249,94.9584093 Z" id="Shape" fill="#404040" fill-rule="nonzero"></path>
                <path d="M527.362922,80.6250645 C526.875422,80.6250645 526.379588,80.4875644 525.933754,80.2125642 L518.542081,75.6000605 C517.275414,74.8125598 516.887914,73.1417252 517.679581,71.8708908 C518.471248,70.6042231 520.142083,70.2208895 521.40875,71.0083901 L528.796256,75.6208938 C530.067091,76.4083945 530.454591,78.0792291 529.662924,79.3458968 C529.150423,80.1708975 528.267089,80.6250645 527.362922,80.6250645 Z" id="Shape" fill="#404040" fill-rule="nonzero"></path>
                <path d="M552.325442,96.1959103 C551.833775,96.1959103 551.337941,96.0625769 550.892107,95.78341 L543.337935,91.0667395 C542.071267,90.2792389 541.6796,88.6084042 542.471267,87.3417365 C543.262935,86.0750689 544.933769,85.6875685 546.200437,86.4750692 L553.758776,91.1917396 C555.029611,91.9834069 555.412944,93.6542416 554.621277,94.9209093 C554.108777,95.7417433 553.225443,96.1959103 552.325442,96.1959103 Z" id="Shape" fill="#404040" fill-rule="nonzero"></path>
                <path d="M122.816765,96.3459104 C117.291761,96.3459104 112.80009,100.841747 112.80009,106.362585 C112.80009,111.883423 117.291761,116.375093 122.816765,116.375093 C128.337603,116.375093 132.825106,111.883423 132.825106,106.362585 C132.825106,100.841747 128.337603,96.3459104 122.816765,96.3459104 Z M122.816765,121.787597 C114.308425,121.787597 107.387586,114.866759 107.387586,106.362585 C107.387586,97.8542449 114.308425,90.9375728 122.816765,90.9375728 C131.320938,90.9375728 138.241777,97.8542449 138.241777,106.362585 C138.241777,114.866759 131.320938,121.787597 122.816765,121.787597 Z" id="Shape" fill="#404040" fill-rule="nonzero"></path>
                <path d="M406.083658,441.80452 C405.387824,441.80452 404.696157,441.537853 404.16699,441.008686 L384.066974,420.837837 C383.00864,419.779502 383.012806,418.067001 384.071141,417.008667 C385.133641,415.954499 386.846143,415.958666 387.90031,417.017 L408.000326,437.18785 C409.054494,438.246184 409.054494,439.958685 407.991993,441.012853 C407.466993,441.54202 406.775325,441.80452 406.083658,441.80452 Z" id="Shape" fill="#404040" fill-rule="nonzero"></path>
                <path d="M385.554475,441.80452 C384.862808,441.80452 384.171141,441.54202 383.64614,441.012853 C382.583639,439.958685 382.583639,438.246184 383.637807,437.18785 L403.737823,417.017 C404.791991,415.958666 406.508659,415.954499 407.566993,417.008667 C408.625327,418.067001 408.629494,419.779502 407.571159,420.837837 L387.471143,441.008686 C386.941976,441.537853 386.250309,441.80452 385.554475,441.80452 Z" id="Shape" fill="#404040" fill-rule="nonzero"></path>
            </g>
            <g id="museum" transform="translate(165.000000, 152.000000)" fill="#404040" fill-rule="nonzero">
                <path d="M115.5,63 C116.683008,63 117.844922,62.5183596 118.68164,61.6816404 C119.51836,60.8449221 120,59.6830077 120,58.5 C120,57.3169923 119.51836,56.1550779 118.68164,55.3183596 C117.844922,54.4816404 116.683008,54 115.5,54 C114.316992,54 113.155078,54.4816404 112.31836,55.3183596 C111.48164,56.1550779 111,57.3169923 111,58.5 C111,59.6830077 111.48164,60.8449221 112.31836,61.6816404 C113.155078,62.5183596 114.316992,63 115.5,63 Z" id="Shape"></path>
                <path d="M226.488281,203.929739 L221.074219,203.929739 L221.074219,190.394609 C221.074219,187.902594 219.05452,185.882899 216.5625,185.882899 L213.855469,185.882899 L213.855469,178.739945 C213.855469,173.854609 210.875267,169.654841 206.636719,167.860732 L206.636719,152.646046 C206.636719,150.154032 204.61702,148.134336 202.125,148.134336 C199.63298,148.134336 197.613281,150.154032 197.613281,152.646046 L197.613281,166.933716 L188.589844,166.933716 L188.589844,102.867432 L197.613281,102.867432 L197.613281,117.465282 C197.613281,119.957296 199.63298,121.976992 202.125,121.976992 C204.61702,121.976992 206.636719,119.957296 206.636719,117.465282 L206.636719,101.940416 C210.875267,100.146307 213.855469,95.9447767 213.855469,91.0612028 L213.855469,83.9182493 L216.5625,83.9182493 C219.05452,83.9182493 221.074219,81.8985543 221.074219,79.4065392 L221.074219,62.2620407 L221.525391,62.2620407 C223.617348,62.2620407 225.432609,60.8256953 225.915505,58.7901389 C226.398399,56.7563444 225.41851,54.6555793 223.550377,53.7179896 L117.524986,0.479809884 C116.250778,-0.159936628 114.749222,-0.159936628 113.475014,0.479809884 L7.44962322,53.7179896 C5.58148968,54.6573416 4.60160076,56.7563444 5.08449543,58.7901389 C5.56739055,60.8256953 7.38265217,62.2620407 9.47460938,62.2620407 L9.92578125,62.2620407 L9.92578125,79.4065392 C9.92578125,81.8985543 11.9454801,83.9182493 14.4375,83.9182493 L17.1445312,83.9182493 L17.1445312,91.0612028 C17.1445312,95.9447767 20.1247331,100.146307 24.3632812,101.938654 L24.3632812,167.860732 C20.1247331,169.654841 17.1445312,173.854609 17.1445312,178.738182 L17.1445312,185.882899 L14.4375,185.882899 C11.9454801,185.882899 9.92578125,187.902594 9.92578125,190.394609 L9.92578125,203.929739 L4.51171875,203.929739 C2.01969887,203.929739 0,205.949434 0,208.441449 L0,226.48829 C0,228.980305 2.01969887,231 4.51171875,231 L226.488281,231 C228.980301,231 231,228.980305 231,226.48829 L231,208.441449 C231,205.949434 228.980301,203.929739 226.488281,203.929739 Z M202.049217,175.957136 C203.584259,175.957136 204.832031,177.204906 204.832031,178.739945 L204.832031,185.882899 L181.371094,185.882899 L181.371094,178.739945 C181.371094,177.204906 182.618866,175.957136 184.153908,175.957136 L202.049217,175.957136 Z M162.120506,185.882899 L162.120506,178.739945 C162.120506,173.856371 159.140304,169.654841 154.901756,167.860732 L154.901756,101.940416 C159.140304,100.146307 162.120506,95.9447767 162.120506,91.0612028 L162.120506,83.9182493 L172.347656,83.9182493 L172.347656,91.0612028 C172.347656,95.9447767 175.327858,100.146307 179.566406,101.938654 L179.566406,167.860732 C175.327858,169.654841 172.347656,173.854609 172.347656,178.738182 L172.347656,185.882899 L162.120506,185.882899 Z M110.387306,185.882899 L110.387306,178.739945 C110.387306,173.854609 107.405342,169.654841 103.168556,167.860732 L103.168556,101.940416 C107.405342,100.146307 110.387306,95.9447767 110.387306,91.0612028 L110.387306,83.9182493 L120.614456,83.9182493 L120.614456,91.0612028 C120.614456,95.9447767 123.594658,100.146307 127.833206,101.938654 L127.833206,167.860732 C123.594658,169.654841 120.614456,173.854609 120.614456,178.738182 L120.614456,185.882899 L110.387306,185.882899 Z M58.6523438,185.882899 L58.6523438,178.739945 C58.6523438,173.854609 55.6721419,169.654841 51.4335938,167.860732 L51.4335938,101.940416 C55.6721419,100.146307 58.6523438,95.9447767 58.6523438,91.0612028 L58.6523438,83.9182493 L68.8794938,83.9182493 L68.8794938,91.0612028 C68.8794938,95.9447767 71.8596957,100.146307 76.0982438,101.938654 L76.0982438,167.860732 C71.8596957,169.654841 68.8794938,173.854609 68.8794938,178.738182 L68.8794938,185.882899 L58.6523438,185.882899 Z M33.3867188,102.867432 L42.4101563,102.867432 L42.4101563,166.933716 L33.3867188,166.933716 L33.3867188,102.867432 Z M85.1216813,102.867432 L94.1451188,102.867432 L94.1451188,166.933716 L85.1216813,166.933716 L85.1216813,102.867432 Z M101.363869,91.0612028 C101.363869,92.5962418 100.116097,93.8440117 98.5810547,93.8440117 L80.6839827,93.8440117 C79.1507035,93.8440117 77.9011686,92.5962418 77.9011686,91.0612028 L77.9011686,83.9182493 L101.362106,83.9182493 L101.362106,91.0612028 L101.363869,91.0612028 Z M77.9029313,178.739945 C77.9029313,177.204906 79.1507035,175.957136 80.6857455,175.957136 L98.5810547,175.957136 C100.114334,175.957136 101.363869,177.204906 101.363869,178.739945 L101.363869,185.882899 L77.9029313,185.882899 L77.9029313,178.739945 Z M136.854881,102.867432 L145.878319,102.867432 L145.878319,166.933716 L136.854881,166.933716 L136.854881,102.867432 Z M153.097069,91.0612028 C153.097069,92.5962418 151.849296,93.8440117 150.314255,93.8440117 L132.418945,93.8440117 C130.885666,93.8440117 129.636131,92.5962418 129.636131,91.0612028 L129.636131,83.9182493 L153.097069,83.9182493 L153.097069,91.0612028 Z M129.636131,178.739945 C129.636131,177.204906 130.883903,175.957136 132.418945,175.957136 L150.316017,175.957136 C151.849296,175.957136 153.098831,177.204906 153.098831,178.739945 L153.098831,185.882899 L129.637894,185.882899 L129.637894,178.739945 L129.636131,178.739945 Z M204.832031,91.0612028 C204.832031,92.5962418 203.584259,93.8440117 202.049217,93.8440117 L184.152145,93.8440117 C182.618866,93.8440117 181.371094,92.5962418 181.371094,91.0612028 L181.371094,83.9182493 L204.832031,83.9182493 L204.832031,91.0612028 Z M93.0912093,62.2620407 C95.5832292,62.2620407 97.602928,60.2423456 97.602928,57.7503305 C97.602928,55.2583154 95.5832292,53.2386204 93.0912093,53.2386204 L28.5137101,53.2386204 L115.5,9.56138882 L202.48629,53.2386204 L139.412109,53.2386204 C136.920089,53.2386204 134.900391,55.2583154 134.900391,57.7503305 C134.900391,60.2423456 136.920089,62.2620407 139.412109,62.2620407 L212.050781,62.2620407 L212.050781,74.8948291 L18.9492188,74.8948291 L18.9492188,62.2620407 L93.0912093,62.2620407 Z M49.6289063,83.9182493 L49.6289063,91.0612028 C49.6289063,92.5962418 48.381134,93.8440117 46.8460921,93.8440117 L28.9507829,93.8440117 C27.415741,93.8440117 26.1679688,92.5962418 26.1679688,91.0612028 L26.1679688,83.9182493 L49.6289063,83.9182493 Z M26.1679688,178.739945 C26.1679688,177.204906 27.415741,175.957136 28.9507829,175.957136 L46.8478548,175.957136 C48.381134,175.957136 49.6289063,177.204906 49.6289063,178.739945 L49.6289063,185.882899 L26.1679688,185.882899 L26.1679688,178.739945 Z M18.9492188,194.906319 L212.050781,194.906319 L212.050781,203.929739 L18.9492188,203.929739 L18.9492188,194.906319 Z M221.976563,221.97658 L9.0234375,221.97658 L9.0234375,212.953159 L221.976563,212.953159 L221.976563,221.97658 Z" id="Shape"></path>
                <path d="M202.5,131 C201.316992,131 200.155078,131.48164 199.31836,132.31836 C198.48164,133.155078 198,134.316992 198,135.5 C198,136.683008 198.48164,137.844922 199.31836,138.68164 C200.155078,139.51836 201.316992,140 202.5,140 C203.683008,140 204.844922,139.51836 205.68164,138.68164 C206.51836,137.844922 207,136.683008 207,135.5 C207,134.316992 206.51836,133.155078 205.68164,132.31836 C204.844922,131.48164 203.683008,131 202.5,131 Z" id="Shape"></path>
            </g>
        </g>
    </g>
</svg>
