
<svg width="776px" height="713px" viewBox="0 0 776 713" version="1.1" xmlns="http://www.w3.org/2000/svg" xmlns:xlink="http://www.w3.org/1999/xlink">
    <!-- Generator: Sketch 49 (51002) - http://www.bohemiancoding.com/sketch -->
    <desc>Created with Sketch.</desc>
    <defs>
        <linearGradient x1="115.368719%" y1="-16.1059145%" x2="-24.0132454%" y2="127.305247%" id="linearGradient-1">
            <stop stop-color="#87B6CE" offset="0%"></stop>
            <stop stop-color="#1B6BA6" offset="100%"></stop>
        </linearGradient>
        <linearGradient x1="103.05073%" y1="-3.05129002%" x2="-3.41742484%" y2="103.41781%" id="linearGradient-2">
            <stop stop-color="#CA7A1B" offset="0%"></stop>
            <stop stop-color="#F3AA54" offset="100%"></stop>
        </linearGradient>
        <linearGradient x1="0.000589334725%" y1="50.000421%" x2="100.000589%" y2="50.000421%" id="linearGradient-3">
            <stop stop-color="#87B6CE" offset="0%"></stop>
            <stop stop-color="#1B6BA6" offset="100%"></stop>
        </linearGradient>
    </defs>
    <g id="Page-1" stroke="none" stroke-width="1" fill="none" fill-rule="evenodd">
        <g id="service-1" transform="translate(-8.000000, -40.000000)">
            <g id="Group" transform="translate(393.666840, 394.166900) rotate(45.000000) translate(-393.666840, -394.166900) translate(115.666840, 115.666900)">
                <polygon id="Shape" fill="url(#linearGradient-1)" points="166.745967 552.458775 174.691806 552.458775 511.521243 215.629339 511.521243 207.683499"></polygon>
                <polygon id="Shape" fill="url(#linearGradient-1)" points="193.241821 552.458775 201.191828 552.458775 511.521243 242.12936 511.521243 234.179354"></polygon>
                <polygon id="Shape" fill="url(#linearGradient-1)" points="219.737676 552.458775 227.687682 552.458775 511.521243 268.625215 511.521243 260.675209"></polygon>
                <polygon id="Shape" fill="url(#linearGradient-1)" points="7.76667288 552.458775 15.7166792 552.458775 511.521243 56.6583787 511.521243 48.7083723"></polygon>
                <polygon id="Shape" fill="url(#linearGradient-1)" points="246.23353 552.458775 254.183537 552.458775 511.521243 295.121069 511.521243 287.171063"></polygon>
                <polygon id="Shape" fill="url(#linearGradient-1)" points="113.750091 552.458775 121.700097 552.458775 511.521243 162.63763 511.521243 154.687624"></polygon>
                <polygon id="Shape" fill="url(#linearGradient-1)" points="34.2625274 552.458775 42.2125338 552.458775 511.521243 83.1542332 511.521243 75.2042268"></polygon>
                <polygon id="Shape" fill="url(#linearGradient-1)" points="60.7625486 552.458775 68.7083883 552.458775 511.521243 109.645921 511.521243 101.700081"></polygon>
                <polygon id="Shape" fill="url(#linearGradient-1)" points="87.2542365 552.458775 95.2042428 552.458775 511.521243 136.141776 511.521243 128.195936"></polygon>
                <polygon id="Shape" fill="url(#linearGradient-1)" points="140.250112 552.458775 148.195952 552.458775 511.521243 189.137651 511.521243 181.187645"></polygon>
                <polygon id="Shape" fill="url(#linearGradient-1)" points="405.212824 552.458775 413.162831 552.458775 511.521243 454.096197 511.521243 446.14619"></polygon>
                <polygon id="Shape" fill="url(#linearGradient-1)" points="511.521243 533.587927 511.521243 525.633754 484.700388 552.458775 492.650394 552.458775"></polygon>
                <polygon id="Shape" fill="url(#linearGradient-1)" points="431.708679 552.458775 439.658685 552.458775 511.521243 480.596218 511.521243 472.646211"></polygon>
                <polygon id="Shape" fill="url(#linearGradient-1)" points="458.204533 552.458775 466.150373 552.458775 511.521243 507.087906 511.521243 499.142066"></polygon>
                <polygon id="Shape" fill="url(#linearGradient-1)" points="272.733552 552.458775 280.679391 552.458775 511.521243 321.616924 511.521243 313.666918"></polygon>
                <polygon id="Shape" fill="url(#linearGradient-1)" points="299.225239 552.458775 307.175246 552.458775 511.521243 348.112778 511.521243 340.166939"></polygon>
                <polygon id="Shape" fill="url(#linearGradient-1)" points="325.721094 552.458775 333.6711 552.458775 511.521243 374.608633 511.521243 366.658627"></polygon>
                <polygon id="Shape" fill="url(#linearGradient-1)" points="352.221115 552.458775 360.166955 552.458775 511.521243 401.104488 511.521243 393.154481"></polygon>
                <polygon id="Shape" fill="url(#linearGradient-1)" points="378.71697 552.458775 386.662809 552.458775 511.521243 427.600342 511.521243 419.654502"></polygon>
                <polygon id="Shape" fill="url(#linearGradient-1)" points="0 348.258612 0 356.204452 315.271086 40.9375328 307.321079 40.9375328"></polygon>
                <polygon id="Shape" fill="url(#linearGradient-1)" points="0 189.279318 0 197.229324 156.291792 40.9375328 148.341785 40.9375328"></polygon>
                <polygon id="Shape" fill="url(#linearGradient-1)" points="0 162.783464 0 170.73347 129.791771 40.9375328 121.845931 40.9375328"></polygon>
                <polygon id="Shape" fill="url(#linearGradient-1)" points="0 215.775173 0 223.725179 182.787646 40.9375328 174.83764 40.9375328"></polygon>
                <polygon id="Shape" fill="url(#linearGradient-1)" points="0 242.275194 0 250.221034 209.287667 40.9375328 201.337661 40.9375328"></polygon>
                <polygon id="Shape" fill="url(#linearGradient-1)" points="0 268.766882 0 276.716888 235.779355 40.9375328 227.833516 40.9375328"></polygon>
                <polygon id="Shape" fill="url(#linearGradient-1)" points="0 56.8000454 0 64.7500518 23.8083524 40.9375328 15.8625127 40.9375328"></polygon>
                <polygon id="Shape" fill="url(#linearGradient-1)" points="0 83.2959 0 91.2459063 50.3042069 40.9375328 42.3583672 40.9375328"></polygon>
                <polygon id="Shape" fill="url(#linearGradient-1)" points="0 136.287609 0 144.237615 103.300083 40.9375328 95.3500763 40.9375328"></polygon>
                <polygon id="Shape" fill="url(#linearGradient-1)" points="0 109.795921 0 117.741761 76.8042281 40.9375328 68.8542218 40.9375328"></polygon>
                <polygon id="Shape" fill="url(#linearGradient-1)" points="0 401.250321 0 409.196161 368.262795 40.9375328 360.312788 40.9375328"></polygon>
                <polygon id="Shape" fill="url(#linearGradient-1)" points="0 480.737885 0 488.687891 447.750358 40.9375328 439.800352 40.9375328"></polygon>
                <polygon id="Shape" fill="url(#linearGradient-1)" points="0 427.746176 0 435.692015 394.758649 40.9375328 386.808643 40.9375328"></polygon>
                <polygon id="Shape" fill="url(#linearGradient-1)" points="0 454.24203 0 462.192036 421.254504 40.9375328 413.304497 40.9375328"></polygon>
                <polygon id="Shape" fill="url(#linearGradient-1)" points="0 507.233739 0 515.183745 474.246213 40.9375328 466.300373 40.9375328"></polygon>
                <polygon id="Shape" fill="url(#linearGradient-1)" points="0 321.762757 0 329.708597 288.775231 40.9375328 280.825225 40.9375328"></polygon>
                <polygon id="Shape" fill="url(#linearGradient-1)" points="511.196242 552.458775 511.521243 552.458775 511.521243 552.133775"></polygon>
                <polygon id="Shape" fill="url(#linearGradient-1)" points="0 533.729594 0 541.6796 500.742067 40.9375328 492.796228 40.9375328"></polygon>
                <polygon id="Shape" fill="url(#linearGradient-1)" points="0 295.262736 0 303.212743 262.27521 40.9375328 254.32937 40.9375328"></polygon>
                <polygon id="Shape" fill="url(#linearGradient-1)" points="0 374.7503 0 382.704473 341.76694 40.9375328 333.816934 40.9375328"></polygon>
                <rect id="Rectangle-path" fill="url(#linearGradient-2)" transform="translate(278.150223, 274.535636) rotate(90.000000) translate(-278.150223, -274.535636) " x="43.5750349" y="39.962532" width="469.150375" height="469.146209"></rect>
                <path d="M61.8125494,489.733725 L545.89627,489.733725 L545.89627,5.65417119 L61.8125494,5.65417119 L61.8125494,489.733725 Z M551.308774,495.146229 L56.4000451,495.146229 L56.4000451,0.24166686 L551.308774,0.24166686 L551.308774,495.146229 Z" id="Shape" fill="url(#linearGradient-3)"></path>
                <path d="M536.150429,74.8792266 C534.654594,74.8792266 533.442093,73.6667256 533.442093,72.1750577 L533.442093,63.8708844 C533.442093,62.3792166 534.654594,61.1667156 536.150429,61.1667156 C537.646263,61.1667156 538.858764,62.3792166 538.858764,63.8708844 L538.858764,72.1750577 C538.858764,73.6667256 537.646263,74.8792266 536.150429,74.8792266 Z" id="Shape" fill="#404040" fill-rule="nonzero"></path>
                <path d="M536.150429,104.708417 C534.654594,104.708417 533.442093,103.495916 533.442093,102.004248 L533.442093,92.5334074 C533.442093,91.0375728 534.654594,89.8250719 536.150429,89.8250719 C537.646263,89.8250719 538.858764,91.0375728 538.858764,92.5334074 L538.858764,102.004248 C538.858764,103.495916 537.646263,104.708417 536.150429,104.708417 Z" id="Shape" fill="#404040" fill-rule="nonzero"></path>
                <path d="M545.729603,80.2833976 C544.779602,80.2833976 543.858768,79.7833972 543.362935,78.9000631 C542.633767,77.5958954 543.100434,75.9458941 544.404602,75.2125602 L551.462941,71.262557 C552.771276,70.5292231 554.41711,70.9958901 555.146277,72.3000578 C555.879611,73.6042256 555.412944,75.2542269 554.108777,75.9833941 L547.050438,79.9375639 C546.629604,80.1708975 546.175437,80.2833976 545.729603,80.2833976 Z" id="Shape" fill="#404040" fill-rule="nonzero"></path>
                <path d="M519.521249,94.9584093 C518.571248,94.9584093 517.650414,94.4625756 517.15458,93.5750749 C516.425413,92.2709071 516.89208,90.6209058 518.196248,89.8917386 L526.458755,85.2625682 C527.762922,84.533401 529.412924,85.000068 530.142091,86.3042357 C530.871258,87.6084034 530.404591,89.2584047 529.100423,89.987572 L520.837917,94.6125757 C520.42125,94.8500759 519.967083,94.9584093 519.521249,94.9584093 Z" id="Shape" fill="#404040" fill-rule="nonzero"></path>
                <path d="M527.362922,80.6250645 C526.875422,80.6250645 526.379588,80.4875644 525.933754,80.2125642 L518.542081,75.6000605 C517.275414,74.8125598 516.887914,73.1417252 517.679581,71.8708908 C518.471248,70.6042231 520.142083,70.2208895 521.40875,71.0083901 L528.796256,75.6208938 C530.067091,76.4083945 530.454591,78.0792291 529.662924,79.3458968 C529.150423,80.1708975 528.267089,80.6250645 527.362922,80.6250645 Z" id="Shape" fill="#404040" fill-rule="nonzero"></path>
                <path d="M552.325442,96.1959103 C551.833775,96.1959103 551.337941,96.0625769 550.892107,95.78341 L543.337935,91.0667395 C542.071267,90.2792389 541.6796,88.6084042 542.471267,87.3417365 C543.262935,86.0750689 544.933769,85.6875685 546.200437,86.4750692 L553.758776,91.1917396 C555.029611,91.9834069 555.412944,93.6542416 554.621277,94.9209093 C554.108777,95.7417433 553.225443,96.1959103 552.325442,96.1959103 Z" id="Shape" fill="#404040" fill-rule="nonzero"></path>
                <path d="M122.816765,96.3459104 C117.291761,96.3459104 112.80009,100.841747 112.80009,106.362585 C112.80009,111.883423 117.291761,116.375093 122.816765,116.375093 C128.337603,116.375093 132.825106,111.883423 132.825106,106.362585 C132.825106,100.841747 128.337603,96.3459104 122.816765,96.3459104 Z M122.816765,121.787597 C114.308425,121.787597 107.387586,114.866759 107.387586,106.362585 C107.387586,97.8542449 114.308425,90.9375728 122.816765,90.9375728 C131.320938,90.9375728 138.241777,97.8542449 138.241777,106.362585 C138.241777,114.866759 131.320938,121.787597 122.816765,121.787597 Z" id="Shape" fill="#404040" fill-rule="nonzero"></path>
                <path d="M406.083658,441.80452 C405.387824,441.80452 404.696157,441.537853 404.16699,441.008686 L384.066974,420.837837 C383.00864,419.779502 383.012806,418.067001 384.071141,417.008667 C385.133641,415.954499 386.846143,415.958666 387.90031,417.017 L408.000326,437.18785 C409.054494,438.246184 409.054494,439.958685 407.991993,441.012853 C407.466993,441.54202 406.775325,441.80452 406.083658,441.80452 Z" id="Shape" fill="#404040" fill-rule="nonzero"></path>
                <path d="M385.554475,441.80452 C384.862808,441.80452 384.171141,441.54202 383.64614,441.012853 C382.583639,439.958685 382.583639,438.246184 383.637807,437.18785 L403.737823,417.017 C404.791991,415.958666 406.508659,415.954499 407.566993,417.008667 C408.625327,418.067001 408.629494,419.779502 407.571159,420.837837 L387.471143,441.008686 C386.941976,441.537853 386.250309,441.80452 385.554475,441.80452 Z" id="Shape" fill="#404040" fill-rule="nonzero"></path>
            </g>
            <g id="question" transform="translate(266.000000, 259.000000)" fill="#404040" fill-rule="nonzero">
                <path d="M177.859551,163.64497 C175.020994,163.64497 172.719101,165.949698 172.719101,168.792899 L172.719101,204.313609 C172.719101,218.50645 161.189073,230.053254 147.016854,230.053254 L91.5164494,230.053254 C88.6784073,230.053254 86.3780562,232.355923 86.376,235.19758 L86.3688034,245.432692 L74.0995787,233.14613 C73.3053792,231.32016 71.4877163,230.053254 69.3852725,230.053254 L35.9831461,230.053254 C21.810927,230.053254 10.2808989,218.50645 10.2808989,204.313609 L10.2808989,125.035503 C10.2808989,110.842663 21.810927,99.295858 35.9831461,99.295858 L87.9016854,99.295858 C90.7402416,99.295858 93.0421348,96.9911302 93.0421348,94.147929 C93.0421348,91.3047278 90.7402416,89 87.9016854,89 L35.9831461,89 C16.1420393,89 0,105.165527 0,125.035503 L0,204.313609 C0,224.183586 16.1420393,240.349112 35.9831461,240.349112 L66.7528483,240.349112 L87.8651882,261.492172 C88.8485562,262.47697 90.1629691,263 91.5010281,263 C92.1626039,263 92.8303483,262.871817 93.4651938,262.608757 C95.3861798,261.812888 96.6389073,259.936982 96.6404494,257.855675 L96.6527865,240.349112 L147.016854,240.349112 C166.857961,240.349112 183,224.183586 183,204.313609 L183,168.792899 C183,165.949698 180.698107,163.64497 177.859551,163.64497 Z" id="Shape"></path>
                <path d="M188.48769,0 L175.512823,0 C134.426342,0 101,33.5747682 101,74.8436898 C101,116.112611 134.426342,149.686865 175.51231,149.686865 L188.487177,149.686865 C194.900019,149.686865 201.247241,148.868633 207.399139,147.251739 L226.565892,166.492786 C227.546608,167.476826 228.856962,168 230.190899,168 C230.851715,168 231.518171,167.871781 232.152329,167.60762 C234.06762,166.810501 235.316456,164.933049 235.316456,162.850654 L235.316456,133.058595 C243.431323,126.457648 250.172266,118.119312 254.903076,108.804144 C260.276247,98.2242969 263,86.7984123 263,74.8436898 C263,33.5747682 229.573658,0 188.48769,0 Z M227.105209,126.434476 C225.819975,127.407188 225.063291,128.930364 225.063291,130.547774 L225.063291,150.424251 L212.518032,137.82998 C211.54193,136.850574 210.232601,136.322766 208.893538,136.322766 C208.391133,136.322766 207.883601,136.397431 207.388373,136.550367 C201.286203,138.433998 194.92719,139.388687 188.48769,139.388687 L175.512823,139.388687 C140.079424,139.388687 111.253165,110.433912 111.253165,74.8436898 C111.253165,39.2534674 140.079937,10.2986927 175.512823,10.2986927 L188.48769,10.2986927 C223.920576,10.2986927 252.746835,39.2534674 252.746835,74.8436898 C252.746835,95.3025578 243.401076,114.106941 227.105209,126.434476 Z" id="Shape"></path>
                <path d="M204.947077,56.2335146 C204.214288,45.4710184 195.644272,36.7952177 185.012495,36.0533843 C178.985655,35.6344001 173.234055,37.6923066 168.831739,41.8528455 C164.489855,45.9558062 162,51.7557815 162,57.76602 C162,60.6053449 164.27403,62.9069306 167.078227,62.9069306 C169.882425,62.9069306 172.156455,60.6053449 172.156455,57.76602 C172.156455,54.5483241 173.437184,51.5660819 175.761996,49.3693708 C178.084777,47.1747161 181.120542,46.0884417 184.314747,46.3115572 C189.915016,46.7022664 194.429052,51.2720218 194.814997,56.9409039 C195.205005,62.666336 191.494345,67.7260201 185.992593,68.9721769 C181.534925,69.9818517 178.421972,73.9033383 178.421972,78.5080518 L178.421972,90.8590894 C178.421972,93.6984143 180.696002,96 183.500199,96 C186.304904,96 188.578426,93.6984143 188.577919,90.8590894 L188.577919,78.9188106 C198.810547,76.4162153 205.675802,66.9374045 204.947077,56.2335146 Z" id="Shape"></path>
                <path d="M186.535,107.465 C185.605,106.535 184.315,106 183,106 C181.685,106 180.395,106.535 179.465,107.465 C178.535,108.395 178,109.685 178,111 C178,112.32 178.5355,113.61 179.465,114.54 C180.395,115.47 181.685,116 183,116 C184.315,116 185.605,115.47 186.535,114.54 C187.465,113.605 188,112.32 188,111 C188,109.685 187.4645,108.395 186.535,107.465 Z" id="Shape"></path>
                <path d="M141.848485,159 L33.1515152,159 C30.3068485,159 28,161.2385 28,164 C28,166.7615 30.3068485,169 33.1515152,169 L141.848485,169 C144.693667,169 147,166.7615 147,164 C147,161.2385 144.693152,159 141.848485,159 Z" id="Shape"></path>
                <path d="M144.5345,189.465 C143.605,188.535 142.315,188 141,188 C139.685,188 138.395,188.535 137.465,189.465 C136.5345,190.395 136,191.685 136,193 C136,194.315 136.535,195.605 137.465,196.535 C138.395,197.465 139.685,198 141,198 C142.315,198 143.605,197.465 144.5345,196.535 C145.465,195.605 146,194.32 146,193 C146,191.685 145.4645,190.395 144.5345,189.465 Z" id="Shape"></path>
                <path d="M120.886965,188 L33.1130346,188 C30.2896169,188 28,190.2385 28,193 C28,195.7615 30.2896169,198 33.1130346,198 L120.886965,198 C123.710894,198 126,195.7615 126,193 C126,190.2385 123.710383,188 120.886965,188 Z" id="Shape"></path>
                <path d="M107.879518,130 L33.1204819,130 C30.2929518,130 28,132.2385 28,135 C28,137.7615 30.2929518,140 33.1204819,140 L107.879518,140 C110.70756,140 113,137.7615 113,135 C113,132.2385 110.707048,130 107.879518,130 Z" id="Shape"></path>
            </g>
        </g>
    </g>
</svg>
