
<svg width="603px" height="590px" viewBox="0 0 603 590" version="1.1" xmlns="http://www.w3.org/2000/svg" xmlns:xlink="http://www.w3.org/1999/xlink">
    <!-- Generator: Sketch 49 (51002) - http://www.bohemiancoding.com/sketch -->
    <desc>Created with Sketch.</desc>
    <defs>
        <linearGradient x1="90.1383545%" y1="-4472.70521%" x2="25.1909128%" y2="2807.80871%" id="linearGradient-1">
            <stop stop-color="#87B6CE" offset="0%"></stop>
            <stop stop-color="#1B6BA6" offset="100%"></stop>
        </linearGradient>
        <linearGradient x1="74.7980304%" y1="8.44656089%" x2="20.4273593%" y2="99.5548761%" id="linearGradient-2">
            <stop stop-color="#CD7E20" offset="0%"></stop>
            <stop stop-color="#F1A852" offset="100%"></stop>
        </linearGradient>
        <linearGradient x1="74.7980304%" y1="8.44656089%" x2="20.4273593%" y2="99.5548761%" id="linearGradient-3">
            <stop stop-color="#1B6BA6" offset="0%"></stop>
            <stop stop-color="#87B6CE" offset="100%"></stop>
        </linearGradient>
    </defs>
    <g id="Page-1" stroke="none" stroke-width="1" fill="none" fill-rule="evenodd">
        <g id="service-3" transform="translate(-1.000000, 0.000000)">
            <g id="Group" transform="translate(0.501310, 0.666880)">
                <path d="M15.8000134,407.916995 C16.487514,409.87533 17.1916812,411.821165 17.9208485,413.7545 L522.642086,413.7545 C523.371253,411.821165 524.07542,409.87533 524.758754,407.916995 L15.8000134,407.916995 Z" id="Shape" fill="url(#linearGradient-1)"></path>
                <path d="M23.4833529,427.387844 C24.3458536,429.346179 25.2291877,431.287847 26.1416884,433.225349 L514.421246,433.225349 C515.32958,431.287847 516.21708,429.346179 517.079581,427.387844 L23.4833529,427.387844 Z" id="Shape" fill="url(#linearGradient-1)"></path>
                <path d="M9.81250865,388.446146 C10.3333424,390.404481 10.8750095,392.350316 11.4333433,394.287818 L529.121257,394.287818 C529.687925,392.350316 530.229592,390.404481 530.750425,388.446146 L9.81250865,388.446146 Z" id="Shape" fill="url(#linearGradient-1)"></path>
                <path d="M2.46666944,349.508615 C2.69166962,351.458617 2.92916981,353.408618 3.19167002,355.350287 L537.371264,355.350287 C537.629598,353.408618 537.867098,351.458617 538.092098,349.508615 L2.46666944,349.508615 Z" id="Shape" fill="url(#linearGradient-1)"></path>
                <path d="M5.39167178,368.975298 C5.76250541,370.929466 6.14583905,372.879467 6.55417271,374.821136 L534.004595,374.821136 C534.417095,372.879467 534.796262,370.929466 535.167096,368.975298 L5.39167178,368.975298 Z" id="Shape" fill="url(#linearGradient-1)"></path>
                <path d="M32.9958605,446.854527 C34.0583614,448.817028 35.1416956,450.762863 36.2458631,452.696198 L504.312904,452.696198 C505.421238,450.762863 506.504573,448.817028 507.567074,446.854527 L32.9958605,446.854527 Z" id="Shape" fill="url(#linearGradient-1)"></path>
                <path d="M75.5708946,505.25874 C77.4667294,507.242075 79.3958977,509.183743 81.3542325,511.104578 L459.208702,511.104578 C461.16287,509.183743 463.096205,507.242075 464.992039,505.25874 L75.5708946,505.25874 Z" id="Shape" fill="url(#linearGradient-1)"></path>
                <path d="M323.571093,583.142136 L216.987674,583.142136 C234.216855,586.596305 252.037702,588.41714 270.279384,588.41714 C288.525232,588.41714 306.346079,586.596305 323.571093,583.142136 Z" id="Shape" fill="url(#linearGradient-1)"></path>
                <path d="M122.333432,544.200438 C125.379268,546.208773 128.46677,548.154608 131.600106,550.037942 L408.958661,550.037942 C412.091997,548.154608 415.1795,546.208773 418.229502,544.200438 L122.333432,544.200438 Z" id="Shape" fill="url(#linearGradient-1)"></path>
                <path d="M0.97500158,330.037766 C1.05000164,331.991935 1.15416839,333.93777 1.27500182,335.879438 L539.287932,335.879438 C539.408766,333.93777 539.512932,331.991935 539.587932,330.037766 L0.97500158,330.037766 Z" id="Shape" fill="url(#linearGradient-1)"></path>
                <path d="M44.6208698,466.325375 C45.9083709,468.287877 47.2208719,470.233712 48.558373,472.16288 L492.004561,472.16288 C493.342062,470.233712 494.654563,468.287877 495.942064,466.325375 L44.6208698,466.325375 Z" id="Shape" fill="url(#linearGradient-1)"></path>
                <path d="M96.2959112,524.729589 C98.6417464,526.71709 101.008415,528.671259 103.425084,530.575427 L437.137851,530.575427 C439.550352,528.671259 441.921188,526.71709 444.267023,524.729589 L96.2959112,524.729589 Z" id="Shape" fill="url(#linearGradient-1)"></path>
                <path d="M58.6292144,485.796224 C60.1875489,487.762893 61.7750502,489.708727 63.3833848,491.633729 L477.179549,491.633729 C478.783717,489.708727 480.375385,487.762893 481.93372,485.796224 L58.6292144,485.796224 Z" id="Shape" fill="url(#linearGradient-1)"></path>
                <path d="M157.34596,563.671287 C161.808464,565.733788 166.333467,567.687957 170.929304,569.508791 L369.63363,569.508791 C374.229467,567.687957 378.75447,565.733788 383.216974,563.671287 L157.34596,563.671287 Z" id="Shape" fill="url(#linearGradient-1)"></path>
                <path d="M92.9292418,115.879262 C90.7459067,117.791763 88.595905,119.741765 86.4709033,121.720933 L454.092031,121.720933 C451.967029,119.741765 449.817027,117.791763 447.633692,115.879262 L92.9292418,115.879262 Z" id="Shape" fill="url(#linearGradient-1)"></path>
                <path d="M72.8667258,135.350111 C71.0750577,137.270946 69.3125563,139.21678 67.5833882,141.187615 L472.979546,141.187615 C471.250378,139.21678 469.48371,137.270946 467.696208,135.350111 L72.8667258,135.350111 Z" id="Shape" fill="url(#linearGradient-1)"></path>
                <path d="M0.86250149,310.571084 C0.80416811,312.512752 0.77500142,314.458587 0.75416807,316.412756 L539.808766,316.412756 C539.787933,314.458587 539.754599,312.512752 539.700433,310.571084 L0.86250149,310.571084 Z" id="Shape" fill="url(#linearGradient-1)"></path>
                <path d="M42.7458683,174.283475 C41.5167007,176.21681 40.3125331,178.162645 39.1333654,180.125147 L501.421235,180.125147 C500.246234,178.162645 499.046233,176.21681 497.817066,174.283475 L42.7458683,174.283475 Z" id="Shape" fill="url(#linearGradient-1)"></path>
                <path d="M204.229331,57.4708817 C197.487659,59.1708831 190.84182,61.116718 184.312648,63.312553 L356.250286,63.312553 C349.721114,61.116718 343.075275,59.1708831 336.333603,57.4708817 L204.229331,57.4708817 Z" id="Shape" fill="url(#linearGradient-1)"></path>
                <path d="M118.025095,96.4084129 C115.258426,98.3084144 112.525091,100.254249 109.833422,102.250084 L430.729512,102.250084 C428.037843,100.254249 425.304508,98.3084144 422.529505,96.4084129 L118.025095,96.4084129 Z" id="Shape" fill="url(#linearGradient-1)"></path>
                <path d="M151.300122,76.9417306 C147.520952,78.8042321 143.787616,80.750067 140.108446,82.783402 L400.454488,82.783402 C396.775318,80.750067 393.041982,78.8042321 389.262812,76.9417306 L151.300122,76.9417306 Z" id="Shape" fill="url(#linearGradient-1)"></path>
                <path d="M56.3917126,154.816793 C54.9167114,156.741794 53.4583769,158.691796 52.0333758,160.658464 L488.529558,160.658464 C487.104557,158.691796 485.646223,156.741794 484.162888,154.816793 L56.3917126,154.816793 Z" id="Shape" fill="url(#linearGradient-1)"></path>
                <path d="M4.85417135,271.633553 C4.50833774,273.571055 4.18750415,275.516889 3.88750391,277.471058 L536.67543,277.471058 C536.371263,275.516889 536.05043,273.571055 535.708763,271.633553 L4.85417135,271.633553 Z" id="Shape" fill="url(#linearGradient-1)"></path>
                <path d="M2.13750251,291.100235 C1.94166902,293.041904 1.77083555,294.991905 1.61666876,296.941907 L538.942099,296.941907 C538.792098,294.991905 538.617098,293.041904 538.421265,291.100235 L2.13750251,291.100235 Z" id="Shape" fill="url(#linearGradient-1)"></path>
                <path d="M9.04584137,252.162704 C8.55417431,254.104372 8.07500726,256.046041 7.62084023,258.004375 L532.942094,258.004375 C532.487927,256.046041 532.00876,254.104372 531.517093,252.162704 L9.04584137,252.162704 Z" id="Shape" fill="url(#linearGradient-1)"></path>
                <path d="M14.795846,232.691855 C14.1416788,234.629357 13.5041783,236.579358 12.9000111,238.533527 L527.662923,238.533527 C527.050422,236.579358 526.421255,234.629357 525.767088,232.691855 L14.795846,232.691855 Z" id="Shape" fill="url(#linearGradient-1)"></path>
                <path d="M22.2166852,213.225173 C21.3958512,215.158508 20.5958506,217.108509 19.8125167,219.062678 L520.746251,219.062678 C519.962917,217.108509 519.167083,215.158508 518.342082,213.225173 L22.2166852,213.225173 Z" id="Shape" fill="url(#linearGradient-1)"></path>
                <path d="M31.475026,193.754324 C30.4625252,195.687659 29.4708577,197.633494 28.5000236,199.595995 L512.06291,199.595995 C511.08791,197.633494 510.100409,195.687659 509.087908,193.754324 L31.475026,193.754324 Z" id="Shape" fill="url(#linearGradient-1)"></path>
                <path d="M576.646295,291.796069 C576.646295,440.667022 455.958699,561.354618 307.087746,561.354618 C158.216794,561.354618 37.5291975,440.667022 37.5291975,291.796069 C37.5291975,142.925117 158.216794,22.2416869 307.087746,22.2416869 C455.958699,22.2416869 576.646295,142.925117 576.646295,291.796069 Z" id="Shape" fill="url(#linearGradient-2)"></path>
                <path d="M330.904432,5.46250677 C183.762648,5.46250677 64.0542187,125.170936 64.0542187,272.31272 C64.0542187,419.454505 183.762648,539.162934 330.904432,539.162934 C478.046217,539.162934 597.754646,419.454505 597.754646,272.31272 C597.754646,125.170936 478.046217,5.46250677 330.904432,5.46250677 Z M330.904432,544.575438 C258.179374,544.575438 189.808486,516.254582 138.383445,464.829541 C86.9584037,413.408666 58.6375477,345.033612 58.6375477,272.31272 C58.6375477,199.587662 86.9584037,131.216774 138.383445,79.7958996 C189.808486,28.3708584 258.179374,0.05000244 330.904432,0.05000244 C403.625324,0.05000244 472.000378,28.3708584 523.421253,79.7958996 C574.846294,131.216774 603.16715,199.587662 603.16715,272.31272 C603.16715,345.033612 574.846294,413.408666 523.421253,464.829541 C472.000378,516.254582 403.625324,544.575438 330.904432,544.575438 Z" id="Shape" fill="url(#linearGradient-3)"></path>
                <path d="M529.217091,86.4125715 C527.721256,86.4125715 526.512922,87.6250725 526.512922,89.120907 L526.512922,97.4209137 C526.512922,98.9167482 527.721256,100.125082 529.217091,100.125082 C530.712925,100.125082 531.92126,98.9167482 531.92126,97.4209137 L531.92126,89.120907 C531.92126,87.6250725 530.712925,86.4125715 529.217091,86.4125715 Z" id="Shape" fill="#404040" fill-rule="nonzero"></path>
                <path d="M529.217091,115.075094 C527.721256,115.075094 526.512922,116.283429 526.512922,117.779263 L526.512922,127.250104 C526.512922,128.745939 527.721256,129.95844 529.217091,129.95844 C530.712925,129.95844 531.92126,128.745939 531.92126,127.250104 L531.92126,117.779263 C531.92126,116.283429 530.712925,115.075094 529.217091,115.075094 Z" id="Shape" fill="#404040" fill-rule="nonzero"></path>
                <path d="M538.796265,105.529253 C539.242099,105.529253 539.700433,105.416753 540.112933,105.18342 L547.179605,101.233417 C548.479606,100.500083 548.942107,98.8500815 548.217106,97.5459138 C547.483772,96.2417461 545.837937,95.7792457 544.529603,96.5084129 L537.467097,100.462583 C536.16293,101.19175 535.704596,102.841751 536.42543,104.145919 C536.929597,105.029253 537.846264,105.529253 538.796265,105.529253 Z" id="Shape" fill="#404040" fill-rule="nonzero"></path>
                <path d="M519.525416,110.512591 L511.258743,115.137595 C509.958742,115.870928 509.492075,117.52093 510.221242,118.825097 C510.721243,119.708431 511.63791,120.208432 512.587911,120.208432 C513.029578,120.208432 513.492078,120.095932 513.904579,119.862598 L522.167085,115.233428 C523.47542,114.504261 523.93792,112.854259 523.208753,111.550092 C522.479585,110.250091 520.829584,109.779257 519.525416,110.512591 Z" id="Shape" fill="#404040" fill-rule="nonzero"></path>
                <path d="M511.608743,100.850083 L519.000416,105.45842 C519.442083,105.737587 519.937917,105.87092 520.429584,105.87092 C521.329585,105.87092 522.208752,105.416753 522.721252,104.595919 C523.521253,103.329252 523.133753,101.658417 521.862918,100.86675 L514.475412,96.2584127 C513.204578,95.4667454 511.533743,95.8542458 510.742076,97.1209134 C509.954575,98.3875811 510.342076,100.058416 511.608743,100.850083 Z" id="Shape" fill="#404040" fill-rule="nonzero"></path>
                <path d="M546.829605,116.437596 L539.267099,111.725092 C538.000431,110.933424 536.333763,111.320925 535.542096,112.587592 C534.750429,113.85426 535.133762,115.525095 536.408763,116.316762 L543.962936,121.033433 C544.400436,121.308433 544.904603,121.441766 545.387937,121.441766 C546.296271,121.441766 547.179605,120.991766 547.692106,120.170932 C548.483773,118.900098 548.096273,117.229263 546.829605,116.437596 Z" id="Shape" fill="#404040" fill-rule="nonzero"></path>
                <path d="M114.800093,186.008485 C109.279255,186.008485 104.787585,181.516814 104.787585,175.99181 C104.787585,170.470972 109.279255,165.979302 114.800093,165.979302 C120.32093,165.979302 124.812601,170.470972 124.812601,175.99181 C124.812601,181.516814 120.32093,186.008485 114.800093,186.008485 Z M114.800093,160.566798 C106.295919,160.566798 99.3750803,167.487636 99.3750803,175.99181 C99.3750803,184.50015 106.295919,191.420989 114.800093,191.420989 C123.308433,191.420989 130.225105,184.50015 130.225105,175.99181 C130.225105,167.487636 123.308433,160.566798 114.800093,160.566798 Z" id="Shape" fill="#404040" fill-rule="nonzero"></path>
                <path d="M386.029476,456.871201 L393.962816,448.912862 C395.016983,447.854527 395.012817,446.142026 393.954483,445.083692 C392.896148,444.029524 391.183647,444.033691 390.125313,445.092025 L382.20864,453.037865 L374.2878,445.092025 C373.233633,444.033691 371.521131,444.029524 370.45863,445.083692 C369.400296,446.142026 369.400296,447.854527 370.454464,448.912862 L378.387804,456.871201 L370.025297,465.262875 C368.971129,466.321209 368.975296,468.03371 370.03363,469.087878 C370.562797,469.617045 371.254464,469.875378 371.946132,469.875378 C372.637799,469.875378 373.333633,469.612878 373.8628,469.083711 L382.20864,460.704538 L390.558647,469.083711 C391.087814,469.612878 391.779481,469.875378 392.475315,469.875378 C393.166982,469.875378 393.858649,469.617045 394.38365,469.087878 C395.441984,468.03371 395.441984,466.321209 394.391983,465.262875 L386.029476,456.871201 Z" id="Shape" fill="#404040" fill-rule="nonzero"></path>
            </g>
            <g id="art" transform="translate(190.000000, 170.000000)" fill="#404040" fill-rule="nonzero">
                <circle id="Oval" cx="159.5" cy="111.5" r="4.5"></circle>
                <path d="M159.94227,132.052285 C157.347306,131.665598 154.928223,133.465527 154.543661,136.070299 C153.244515,144.869689 145.828974,152.167628 134.707564,155.592977 C122.820356,159.254344 106.320301,158.027054 96.254655,147.032465 C94.478728,145.092833 91.4716309,144.96505 89.5383613,146.74543 C87.6046163,148.526764 87.4767458,151.543017 89.2521975,153.482173 C95.0791016,159.847009 102.99329,164.184958 112.139125,166.026846 C115.368688,166.677205 118.718991,167 122.091161,167 C127.300103,167 132.560384,166.229964 137.498374,164.708964 C152.210618,160.17791 162.098481,149.994362 163.948088,137.467331 C164.332651,134.862559 162.539136,132.438018 159.94227,132.052285 Z" id="Shape"></path>
                <path d="M225.153131,89.9989492 C216.568064,80.0396094 204.719197,73.5821797 190.456725,70.9887148 C204.111781,61.7671914 215.889798,52.5900977 224.287823,44.5823555 C237.092213,32.3731719 241.385691,23.7935156 237.800707,17.5832852 C233.811409,10.6664336 222.295535,10.7141719 201.557421,17.7350078 C184.035401,23.6668438 162.207149,33.969332 140.094555,46.7452305 C136.274823,48.9515898 132.490989,51.2108867 128.788868,53.4876719 C126.043214,45.7280742 127.854127,36.8643516 133.912229,29.1784883 C138.449902,23.4215352 139.46305,16.109543 136.556804,10.0949922 C133.510277,3.79117578 126.823975,0.017015625 118.659754,0 L118.437759,0 C89.6228042,0 61.4384097,11.3773086 39.0768977,32.036168 C16.6875182,52.7205508 2.98050599,80.1024727 0.480936428,109.137273 C-2.52638772,144.104383 8.64326855,177.348187 31.9314918,202.74448 C54.8083157,227.692223 87.2408447,242 120.912767,242 C139.040787,242 156.058831,238.681008 171.493154,232.134246 C185.60637,226.148055 198.13917,217.600539 208.74392,206.728027 C218.57641,196.646742 226.32876,185.041613 231.785587,172.234047 C236.978381,160.047078 239.815194,147.132219 239.990901,134.886168 C240.246431,117.077426 235.115512,101.555867 225.153131,89.9989492 Z M129.341021,64.2755781 C134.34016,61.1205977 139.546652,57.9769609 144.817381,54.9321094 C165.262651,43.1194844 185.621957,33.3898555 202.145472,27.5350625 C220.334894,21.0903945 227.782119,21.5110586 229.518403,22.3429336 C229.368203,23.4428047 228.003169,28.3362148 216.066922,39.3358711 C206.099817,48.521 191.544973,59.3226133 175.083805,69.7508281 C169.880147,73.0485508 164.464413,76.3259492 158.987749,79.4908555 C151.437556,83.851582 143.893031,87.9291875 136.488316,91.6626992 C135.010869,87.3478203 133.117298,83.1605586 130.812801,79.165668 C128.579153,75.2941406 125.988424,71.6594141 123.09257,68.2964648 C125.142009,66.9522305 127.227345,65.6079961 129.341021,64.2755781 Z M127.930644,95.8556328 C114.593466,102.184973 102.3554,107.01032 92.582423,109.809391 C92.0737238,107.36434 91.179131,105.001059 89.9099807,102.799426 C88.7069566,100.712648 87.1978627,98.8470742 85.4535486,97.2381523 C92.7699379,90.1724141 103.067673,81.9860078 115.193325,73.6110117 C118.008411,76.759375 120.504202,80.2031484 122.632048,83.8912852 C124.832633,87.7056211 126.60387,91.7175273 127.930644,95.8556328 Z M230.545249,134.750516 C229.871706,181.783594 187.764917,232.546875 120.912767,232.546875 C89.8797516,232.546875 59.9845785,219.355039 38.8922167,196.353695 C17.4139615,172.931687 7.11575382,142.245426 9.89305333,109.948352 C14.6631125,54.5350781 63.3560689,9.453125 118.437759,9.453125 L118.649835,9.453125 C123.168615,9.46257813 126.59584,11.1962812 128.052033,14.2104102 C129.391088,16.9811211 128.809178,20.3880273 126.494761,23.324168 C117.981961,34.1243633 115.84703,47.4074219 120.656765,58.6070117 C118.124604,60.2395664 115.635898,61.8792109 113.231267,63.5056211 C113.219931,63.5131836 113.208595,63.5207461 113.197732,63.5283086 C98.1781147,73.6700937 85.4951136,83.7579961 77.0564685,92.247375 C70.6563991,90.0585039 63.6243523,90.6965898 57.6474904,94.1488711 C47.8343654,99.8212187 34.9492072,126.25452 32.4661691,131.495805 C31.8011287,132.898648 31.8677272,134.539238 32.6432928,135.883945 C33.4193308,137.228652 34.8056189,138.106375 36.3520268,138.232102 C38.9625939,138.443852 46.3758109,138.978898 54.626941,138.978898 C64.6393891,138.978898 75.8846182,138.190508 81.2644552,135.080902 C87.0920608,131.714645 91.1314257,126.090035 92.5304667,119.624098 C104.113412,116.581609 119.247332,110.629449 135.638123,102.63825 C144.821632,98.1655039 154.26634,93.1321875 163.711047,87.6777344 C168.501889,84.9089141 173.238413,82.054543 177.841739,79.1755937 C177.869607,79.1770117 177.89653,79.1812656 177.924397,79.1822109 C217.292618,80.3118594 230.919806,108.62775 230.545249,134.750516 Z M83.6034326,115.503008 C83.3011415,120.256512 80.6617623,124.514199 76.5411567,126.894496 C72.0743333,129.476617 56.7292812,129.824492 44.1298824,129.247852 C49.9277313,118.044008 57.9001868,104.920234 62.3717335,102.33575 C66.5934177,99.8968438 71.6974141,99.7900234 76.0277341,102.050738 C78.4078042,103.290988 80.3783644,105.183031 81.7273384,107.523152 C83.1306304,109.957332 83.7791393,112.716699 83.6034326,115.503008 Z" id="Shape"></path>
                <path d="M84,29 C73.5234,29 65,37.5234 65,48 C65,58.4766 73.5234,67 84,67 C94.4766,67 103,58.4766 103,48 C103,37.5234 94.4766,29 84,29 Z M84,57.5 C78.7617,57.5 74.5,53.2383 74.5,48 C74.5,42.7617 78.7617,38.5 84,38.5 C89.2383,38.5 93.5,42.7617 93.5,48 C93.5,53.2383 89.2383,57.5 84,57.5 Z" id="Shape"></path>
                <path d="M60,156 C49.5234,156 41,164.5234 41,175 C41,185.4766 49.5234,194 60,194 C70.4766,194 79,185.4766 79,175 C79,164.5234 70.4766,156 60,156 Z M60,184.5 C54.7617,184.5 50.5,180.2383 50.5,175 C50.5,169.7617 54.7617,165.5 60,165.5 C65.2383,165.5 69.5,169.7617 69.5,175 C69.5,180.2383 65.2383,184.5 60,184.5 Z" id="Shape"></path>
                <path d="M107,185 C96.5234,185 88,193.5234 88,204 C88,214.4766 96.5234,223 107,223 C117.4766,223 126,214.4766 126,204 C126,193.5234 117.4766,185 107,185 Z M107,213.5 C101.7617,213.5 97.5,209.2383 97.5,204 C97.5,198.7617 101.7617,194.5 107,194.5 C112.2383,194.5 116.5,198.7617 116.5,204 C116.5,209.2383 112.2383,213.5 107,213.5 Z" id="Shape"></path>
                <path d="M164,175 C153.5234,175 145,183.5234 145,194 C145,204.4766 153.5234,213 164,213 C174.4766,213 183,204.4766 183,194 C183,183.5234 174.4766,175 164,175 Z M164,203.5 C158.7617,203.5 154.5,199.2383 154.5,194 C154.5,188.7617 158.7617,184.5 164,184.5 C169.2383,184.5 173.5,188.7617 173.5,194 C173.5,199.2383 169.2383,203.5 164,203.5 Z" id="Shape"></path>
                <path d="M202,128 C191.5234,128 183,136.5234 183,147 C183,157.4766 191.5234,166 202,166 C212.4766,166 221,157.4766 221,147 C221,136.5234 212.4766,128 202,128 Z M202,156.5 C196.7617,156.5 192.5,152.2383 192.5,147 C192.5,141.7617 196.7617,137.5 202,137.5 C207.2383,137.5 211.5,141.7617 211.5,147 C211.5,152.2383 207.2383,156.5 202,156.5 Z" id="Shape"></path>
            </g>
        </g>
    </g>
</svg>
